<svg version="1.1" id="Layer_1" xmlns="http://www.w3.org/2000/svg" xmlns:xlink="http://www.w3.org/1999/xlink" x="0px" y="0px"
	 width="100%" viewBox="0 0 700 700" enable-background="new 0 0 700 700" xml:space="preserve">
<path fill="#FFFFFF" opacity="1.000000" stroke="none" 
	d="
M487.000000,701.000000 
	C324.666656,701.000000 162.833328,701.000000 1.000000,701.000000 
	C1.000000,467.666656 1.000000,234.333328 1.000000,1.000000 
	C234.333328,1.000000 467.666656,1.000000 701.000000,1.000000 
	C701.000000,234.333328 701.000000,467.666656 701.000000,701.000000 
	C629.833313,701.000000 558.666687,701.000000 487.000000,701.000000 
M500.125183,501.005615 
	C400.548645,501.005615 300.972137,501.005615 201.364502,501.005615 
	C201.364502,534.578430 201.364502,567.758118 201.364502,600.677124 
	C301.437225,600.677124 401.145325,600.677124 500.926666,600.677124 
	C500.926666,567.215454 500.926666,534.076477 501.871582,500.995514 
	C534.793701,500.995514 567.715820,500.995514 600.632690,500.995514 
	C600.632690,467.398987 600.632690,434.228851 600.632690,401.342407 
	C567.211487,401.342407 534.157959,401.342407 501.068542,401.342407 
	C501.068542,434.816406 501.068542,467.948029 500.125183,501.005615 
M501.000000,170.500000 
	C501.000000,180.597519 501.000000,190.695023 501.000000,200.712372 
	C534.645325,200.712372 567.714539,200.712372 600.712402,200.712372 
	C600.712402,167.354706 600.712402,134.285461 600.712402,101.287582 
	C567.354736,101.287582 534.285522,101.287582 501.000000,101.287582 
	C501.000000,124.216316 501.000000,146.858154 501.000000,170.500000 
M116.503304,201.000000 
	C144.598373,201.000000 172.693436,201.000000 200.108200,201.000000 
	C200.108200,169.041962 199.814285,137.659653 200.371872,106.292465 
	C200.475525,100.461433 198.016220,101.004593 194.512558,101.003807 
	C164.846985,100.997154 135.181427,100.996857 105.515862,101.009544 
	C104.078728,101.010155 102.641663,101.149940 101.286423,101.220650 
	C101.286423,134.638702 101.286423,167.710022 101.286423,201.000000 
	C106.215599,201.000000 110.860168,201.000000 116.503304,201.000000 
z"/>
<path fill="#000000" opacity="1.000000" stroke="none" 
	d="
M500.926666,500.937500 
	C500.926666,534.076477 500.926666,567.215454 500.926666,600.677124 
	C401.145325,600.677124 301.437225,600.677124 201.364502,600.677124 
	C201.364502,567.758118 201.364502,534.578430 201.364502,501.005615 
	C300.972137,501.005615 400.548645,501.005615 500.562531,501.005981 
	C500.999878,501.006317 500.926666,500.937500 500.926666,500.937500 
z"/>
<path fill="#000000" opacity="1.000000" stroke="none" 
	d="
M501.000000,170.000000 
	C501.000000,146.858154 501.000000,124.216316 501.000000,101.287582 
	C534.285522,101.287582 567.354736,101.287582 600.712402,101.287582 
	C600.712402,134.285461 600.712402,167.354706 600.712402,200.712372 
	C567.714539,200.712372 534.645325,200.712372 501.000000,200.712372 
	C501.000000,190.695023 501.000000,180.597519 501.000000,170.000000 
z"/>
<path fill="#000000" opacity="1.000000" stroke="none" 
	d="
M501.034210,501.042969 
	C501.068542,467.948029 501.068542,434.816406 501.068542,401.342407 
	C534.157959,401.342407 567.211487,401.342407 600.632690,401.342407 
	C600.632690,434.228851 600.632690,467.398987 600.632690,500.995514 
	C567.715820,500.995514 534.793701,500.995514 501.399109,500.966492 
	C500.926666,500.937500 500.999878,501.006317 501.034210,501.042969 
z"/>
<path fill="#000000" opacity="1.000000" stroke="none" 
	d="
M116.004013,201.000000 
	C110.860168,201.000000 106.215599,201.000000 101.286423,201.000000 
	C101.286423,167.710022 101.286423,134.638702 101.286423,101.220650 
	C102.641663,101.149940 104.078728,101.010155 105.515862,101.009544 
	C135.181427,100.996857 164.846985,100.997154 194.512558,101.003807 
	C198.016220,101.004593 200.475525,100.461433 200.371872,106.292465 
	C199.814285,137.659653 200.108200,169.041962 200.108200,201.000000 
	C172.693436,201.000000 144.598373,201.000000 116.004013,201.000000 
z"/>
</svg>